<mxfile host="app.diagrams.net" modified="2022-12-07T02:11:09.039Z" agent="5.0 (Windows NT 10.0; Win64; x64) AppleWebKit/537.36 (KHTML, like Gecko) Chrome/108.0.0.0 Safari/537.36" version="20.6.0" etag="mIsomNoqUy77in0jqYSv" type="github">
  <diagram id="yF3isMsHqfrkrRhUG_Ne" name="Page-1">
    <mxGraphModel dx="1422" dy="762" grid="1" gridSize="10" guides="1" tooltips="1" connect="1" arrows="1" fold="1" page="1" pageScale="1" pageWidth="850" pageHeight="1100" math="0" shadow="0">
      <root>
        <mxCell id="0" />
        <mxCell id="1" parent="0" />
        <mxCell id="UthKH9loK8pkvIMFC1X0-1" value="Server" style="rounded=0;whiteSpace=wrap;html=1;" vertex="1" parent="1">
          <mxGeometry x="90" y="50" width="120" height="60" as="geometry" />
        </mxCell>
        <mxCell id="UthKH9loK8pkvIMFC1X0-2" value="Client" style="rounded=0;whiteSpace=wrap;html=1;" vertex="1" parent="1">
          <mxGeometry x="600" y="50" width="120" height="60" as="geometry" />
        </mxCell>
        <mxCell id="UthKH9loK8pkvIMFC1X0-3" value="" style="endArrow=classic;html=1;rounded=0;exitX=1;exitY=0.5;exitDx=0;exitDy=0;entryX=0.5;entryY=0;entryDx=0;entryDy=0;" edge="1" parent="1" source="UthKH9loK8pkvIMFC1X0-1" target="UthKH9loK8pkvIMFC1X0-5">
          <mxGeometry width="50" height="50" relative="1" as="geometry">
            <mxPoint x="150" y="280" as="sourcePoint" />
            <mxPoint x="250" y="210" as="targetPoint" />
            <Array as="points">
              <mxPoint x="250" y="80" />
            </Array>
          </mxGeometry>
        </mxCell>
        <mxCell id="UthKH9loK8pkvIMFC1X0-4" value="" style="endArrow=classic;html=1;rounded=0;exitX=0;exitY=0.5;exitDx=0;exitDy=0;entryX=0.5;entryY=0;entryDx=0;entryDy=0;" edge="1" parent="1" source="UthKH9loK8pkvIMFC1X0-2" target="UthKH9loK8pkvIMFC1X0-6">
          <mxGeometry width="50" height="50" relative="1" as="geometry">
            <mxPoint x="460" y="90" as="sourcePoint" />
            <mxPoint x="490" y="210" as="targetPoint" />
            <Array as="points">
              <mxPoint x="520" y="80" />
            </Array>
          </mxGeometry>
        </mxCell>
        <mxCell id="UthKH9loK8pkvIMFC1X0-5" value="socket" style="ellipse;whiteSpace=wrap;html=1;" vertex="1" parent="1">
          <mxGeometry x="200" y="140" width="100" height="50" as="geometry" />
        </mxCell>
        <mxCell id="UthKH9loK8pkvIMFC1X0-6" value="socket" style="ellipse;whiteSpace=wrap;html=1;" vertex="1" parent="1">
          <mxGeometry x="470" y="140" width="100" height="50" as="geometry" />
        </mxCell>
        <mxCell id="UthKH9loK8pkvIMFC1X0-7" value="" style="endArrow=classic;html=1;rounded=0;exitX=0.5;exitY=1;exitDx=0;exitDy=0;entryX=0.5;entryY=0;entryDx=0;entryDy=0;" edge="1" parent="1" source="UthKH9loK8pkvIMFC1X0-5" target="UthKH9loK8pkvIMFC1X0-8">
          <mxGeometry width="50" height="50" relative="1" as="geometry">
            <mxPoint x="249.5" y="260" as="sourcePoint" />
            <mxPoint x="250" y="310" as="targetPoint" />
          </mxGeometry>
        </mxCell>
        <mxCell id="UthKH9loK8pkvIMFC1X0-8" value="bind" style="ellipse;whiteSpace=wrap;html=1;" vertex="1" parent="1">
          <mxGeometry x="200" y="210" width="100" height="50" as="geometry" />
        </mxCell>
        <mxCell id="UthKH9loK8pkvIMFC1X0-10" value="listen" style="ellipse;whiteSpace=wrap;html=1;" vertex="1" parent="1">
          <mxGeometry x="200" y="280" width="100" height="50" as="geometry" />
        </mxCell>
        <mxCell id="UthKH9loK8pkvIMFC1X0-11" value="" style="endArrow=classic;html=1;rounded=0;exitX=0.5;exitY=1;exitDx=0;exitDy=0;entryX=0.5;entryY=0;entryDx=0;entryDy=0;" edge="1" parent="1" source="UthKH9loK8pkvIMFC1X0-8" target="UthKH9loK8pkvIMFC1X0-10">
          <mxGeometry width="50" height="50" relative="1" as="geometry">
            <mxPoint x="400" y="420" as="sourcePoint" />
            <mxPoint x="450" y="370" as="targetPoint" />
            <Array as="points" />
          </mxGeometry>
        </mxCell>
        <mxCell id="UthKH9loK8pkvIMFC1X0-13" value="while(1)&lt;br&gt;accept" style="ellipse;whiteSpace=wrap;html=1;" vertex="1" parent="1">
          <mxGeometry x="200" y="360" width="100" height="50" as="geometry" />
        </mxCell>
        <mxCell id="UthKH9loK8pkvIMFC1X0-14" value="" style="endArrow=classic;html=1;rounded=0;exitX=0.5;exitY=1;exitDx=0;exitDy=0;entryX=0.5;entryY=0;entryDx=0;entryDy=0;" edge="1" parent="1" source="UthKH9loK8pkvIMFC1X0-10" target="UthKH9loK8pkvIMFC1X0-13">
          <mxGeometry width="50" height="50" relative="1" as="geometry">
            <mxPoint x="400" y="410" as="sourcePoint" />
            <mxPoint x="450" y="360" as="targetPoint" />
          </mxGeometry>
        </mxCell>
        <mxCell id="UthKH9loK8pkvIMFC1X0-15" value="" style="endArrow=classic;html=1;rounded=0;exitX=0.5;exitY=1;exitDx=0;exitDy=0;entryX=0.5;entryY=0;entryDx=0;entryDy=0;" edge="1" parent="1" source="UthKH9loK8pkvIMFC1X0-6" target="UthKH9loK8pkvIMFC1X0-16">
          <mxGeometry width="50" height="50" relative="1" as="geometry">
            <mxPoint x="400" y="410" as="sourcePoint" />
            <mxPoint x="490" y="510" as="targetPoint" />
          </mxGeometry>
        </mxCell>
        <mxCell id="UthKH9loK8pkvIMFC1X0-16" value="connect" style="ellipse;whiteSpace=wrap;html=1;" vertex="1" parent="1">
          <mxGeometry x="470" y="360" width="100" height="50" as="geometry" />
        </mxCell>
        <mxCell id="UthKH9loK8pkvIMFC1X0-17" value="" style="endArrow=classic;html=1;rounded=0;exitX=0;exitY=0.5;exitDx=0;exitDy=0;entryX=1;entryY=0.5;entryDx=0;entryDy=0;" edge="1" parent="1" source="UthKH9loK8pkvIMFC1X0-16" target="UthKH9loK8pkvIMFC1X0-13">
          <mxGeometry width="50" height="50" relative="1" as="geometry">
            <mxPoint x="400" y="410" as="sourcePoint" />
            <mxPoint x="450" y="360" as="targetPoint" />
          </mxGeometry>
        </mxCell>
        <mxCell id="UthKH9loK8pkvIMFC1X0-23" value="for(1,3)" style="ellipse;whiteSpace=wrap;html=1;" vertex="1" parent="1">
          <mxGeometry x="470" y="500" width="100" height="50" as="geometry" />
        </mxCell>
        <mxCell id="UthKH9loK8pkvIMFC1X0-24" value="" style="endArrow=classic;html=1;rounded=0;entryX=0.5;entryY=0;entryDx=0;entryDy=0;exitX=0.5;exitY=1;exitDx=0;exitDy=0;" edge="1" parent="1" source="UthKH9loK8pkvIMFC1X0-16" target="UthKH9loK8pkvIMFC1X0-23">
          <mxGeometry width="50" height="50" relative="1" as="geometry">
            <mxPoint x="400" y="410" as="sourcePoint" />
            <mxPoint x="450" y="360" as="targetPoint" />
          </mxGeometry>
        </mxCell>
        <mxCell id="UthKH9loK8pkvIMFC1X0-25" value="write" style="ellipse;whiteSpace=wrap;html=1;" vertex="1" parent="1">
          <mxGeometry x="470" y="730" width="100" height="50" as="geometry" />
        </mxCell>
        <mxCell id="UthKH9loK8pkvIMFC1X0-26" value="read" style="ellipse;whiteSpace=wrap;html=1;" vertex="1" parent="1">
          <mxGeometry x="470" y="880" width="100" height="50" as="geometry" />
        </mxCell>
        <mxCell id="UthKH9loK8pkvIMFC1X0-27" value="" style="endArrow=classic;html=1;rounded=0;entryX=1;entryY=0.5;entryDx=0;entryDy=0;exitX=1;exitY=0.5;exitDx=0;exitDy=0;" edge="1" parent="1" source="UthKH9loK8pkvIMFC1X0-26" target="UthKH9loK8pkvIMFC1X0-23">
          <mxGeometry width="50" height="50" relative="1" as="geometry">
            <mxPoint x="570" y="720" as="sourcePoint" />
            <mxPoint x="640" y="500" as="targetPoint" />
            <Array as="points">
              <mxPoint x="640" y="905" />
              <mxPoint x="640" y="875" />
              <mxPoint x="640" y="735" />
              <mxPoint x="640" y="525" />
            </Array>
          </mxGeometry>
        </mxCell>
        <mxCell id="UthKH9loK8pkvIMFC1X0-28" value="" style="endArrow=classic;html=1;rounded=0;exitX=0.77;exitY=0.94;exitDx=0;exitDy=0;entryX=0;entryY=0.5;entryDx=0;entryDy=0;exitPerimeter=0;" edge="1" parent="1" source="UthKH9loK8pkvIMFC1X0-26" target="UthKH9loK8pkvIMFC1X0-29">
          <mxGeometry width="50" height="50" relative="1" as="geometry">
            <mxPoint x="400" y="610" as="sourcePoint" />
            <mxPoint x="600" y="800" as="targetPoint" />
            <Array as="points">
              <mxPoint x="547" y="965" />
            </Array>
          </mxGeometry>
        </mxCell>
        <mxCell id="UthKH9loK8pkvIMFC1X0-29" value="close" style="ellipse;whiteSpace=wrap;html=1;" vertex="1" parent="1">
          <mxGeometry x="630" y="940" width="100" height="50" as="geometry" />
        </mxCell>
        <mxCell id="UthKH9loK8pkvIMFC1X0-30" value="" style="endArrow=classic;html=1;rounded=0;entryX=0.5;entryY=0;entryDx=0;entryDy=0;exitX=0.5;exitY=1;exitDx=0;exitDy=0;" edge="1" parent="1" source="UthKH9loK8pkvIMFC1X0-23" target="UthKH9loK8pkvIMFC1X0-25">
          <mxGeometry width="50" height="50" relative="1" as="geometry">
            <mxPoint x="400" y="610" as="sourcePoint" />
            <mxPoint x="450" y="560" as="targetPoint" />
          </mxGeometry>
        </mxCell>
        <mxCell id="UthKH9loK8pkvIMFC1X0-31" value="pthread_create(treat)" style="ellipse;whiteSpace=wrap;html=1;" vertex="1" parent="1">
          <mxGeometry x="180" y="430" width="140" height="50" as="geometry" />
        </mxCell>
        <mxCell id="UthKH9loK8pkvIMFC1X0-32" value="" style="endArrow=classic;html=1;rounded=0;entryX=0.5;entryY=0;entryDx=0;entryDy=0;exitX=0.5;exitY=1;exitDx=0;exitDy=0;" edge="1" parent="1" source="UthKH9loK8pkvIMFC1X0-13" target="UthKH9loK8pkvIMFC1X0-31">
          <mxGeometry width="50" height="50" relative="1" as="geometry">
            <mxPoint x="80" y="470" as="sourcePoint" />
            <mxPoint x="130" y="420" as="targetPoint" />
          </mxGeometry>
        </mxCell>
        <mxCell id="UthKH9loK8pkvIMFC1X0-33" value="" style="endArrow=classic;html=1;rounded=0;exitX=0;exitY=0.5;exitDx=0;exitDy=0;entryX=0;entryY=0.5;entryDx=0;entryDy=0;" edge="1" parent="1" source="UthKH9loK8pkvIMFC1X0-31" target="UthKH9loK8pkvIMFC1X0-13">
          <mxGeometry width="50" height="50" relative="1" as="geometry">
            <mxPoint x="400" y="620" as="sourcePoint" />
            <mxPoint x="110" y="440" as="targetPoint" />
            <Array as="points">
              <mxPoint x="130" y="455" />
              <mxPoint x="130" y="435" />
              <mxPoint x="130" y="385" />
            </Array>
          </mxGeometry>
        </mxCell>
        <mxCell id="UthKH9loK8pkvIMFC1X0-34" value="while(1)" style="ellipse;whiteSpace=wrap;html=1;" vertex="1" parent="1">
          <mxGeometry x="200" y="510" width="100" height="50" as="geometry" />
        </mxCell>
        <mxCell id="UthKH9loK8pkvIMFC1X0-35" value="" style="endArrow=classic;html=1;rounded=0;entryX=0.5;entryY=0;entryDx=0;entryDy=0;exitX=0.5;exitY=1;exitDx=0;exitDy=0;" edge="1" parent="1" source="UthKH9loK8pkvIMFC1X0-31" target="UthKH9loK8pkvIMFC1X0-34">
          <mxGeometry width="50" height="50" relative="1" as="geometry">
            <mxPoint x="400" y="620" as="sourcePoint" />
            <mxPoint x="450" y="570" as="targetPoint" />
          </mxGeometry>
        </mxCell>
        <mxCell id="UthKH9loK8pkvIMFC1X0-36" value="resetFr()" style="ellipse;whiteSpace=wrap;html=1;" vertex="1" parent="1">
          <mxGeometry x="200" y="590" width="100" height="50" as="geometry" />
        </mxCell>
        <mxCell id="UthKH9loK8pkvIMFC1X0-37" value="" style="endArrow=classic;html=1;rounded=0;entryX=0.5;entryY=0;entryDx=0;entryDy=0;exitX=0.5;exitY=1;exitDx=0;exitDy=0;" edge="1" parent="1" source="UthKH9loK8pkvIMFC1X0-34" target="UthKH9loK8pkvIMFC1X0-36">
          <mxGeometry width="50" height="50" relative="1" as="geometry">
            <mxPoint x="400" y="520" as="sourcePoint" />
            <mxPoint x="450" y="470" as="targetPoint" />
          </mxGeometry>
        </mxCell>
        <mxCell id="UthKH9loK8pkvIMFC1X0-38" value="answer()" style="ellipse;whiteSpace=wrap;html=1;" vertex="1" parent="1">
          <mxGeometry x="200" y="660" width="100" height="50" as="geometry" />
        </mxCell>
        <mxCell id="UthKH9loK8pkvIMFC1X0-39" value="" style="endArrow=classic;html=1;rounded=0;entryX=0.5;entryY=0;entryDx=0;entryDy=0;exitX=0.5;exitY=1;exitDx=0;exitDy=0;" edge="1" parent="1" source="UthKH9loK8pkvIMFC1X0-36" target="UthKH9loK8pkvIMFC1X0-38">
          <mxGeometry width="50" height="50" relative="1" as="geometry">
            <mxPoint x="400" y="620" as="sourcePoint" />
            <mxPoint x="450" y="570" as="targetPoint" />
          </mxGeometry>
        </mxCell>
        <mxCell id="UthKH9loK8pkvIMFC1X0-40" value="read" style="ellipse;whiteSpace=wrap;html=1;" vertex="1" parent="1">
          <mxGeometry x="200" y="730" width="100" height="50" as="geometry" />
        </mxCell>
        <mxCell id="UthKH9loK8pkvIMFC1X0-41" value="" style="endArrow=classic;html=1;rounded=0;entryX=0.5;entryY=0;entryDx=0;entryDy=0;exitX=0.5;exitY=1;exitDx=0;exitDy=0;" edge="1" parent="1" source="UthKH9loK8pkvIMFC1X0-38" target="UthKH9loK8pkvIMFC1X0-40">
          <mxGeometry width="50" height="50" relative="1" as="geometry">
            <mxPoint x="400" y="620" as="sourcePoint" />
            <mxPoint x="450" y="570" as="targetPoint" />
          </mxGeometry>
        </mxCell>
        <mxCell id="UthKH9loK8pkvIMFC1X0-42" value="" style="endArrow=classic;html=1;rounded=0;entryX=1;entryY=0.5;entryDx=0;entryDy=0;exitX=0;exitY=0.5;exitDx=0;exitDy=0;" edge="1" parent="1" source="UthKH9loK8pkvIMFC1X0-25" target="UthKH9loK8pkvIMFC1X0-40">
          <mxGeometry width="50" height="50" relative="1" as="geometry">
            <mxPoint x="400" y="620" as="sourcePoint" />
            <mxPoint x="450" y="570" as="targetPoint" />
          </mxGeometry>
        </mxCell>
        <mxCell id="UthKH9loK8pkvIMFC1X0-43" value="getMaxFr()" style="ellipse;whiteSpace=wrap;html=1;" vertex="1" parent="1">
          <mxGeometry x="200" y="800" width="100" height="50" as="geometry" />
        </mxCell>
        <mxCell id="UthKH9loK8pkvIMFC1X0-44" value="" style="endArrow=classic;html=1;rounded=0;entryX=0.5;entryY=0;entryDx=0;entryDy=0;exitX=0.5;exitY=1;exitDx=0;exitDy=0;" edge="1" parent="1" source="UthKH9loK8pkvIMFC1X0-40" target="UthKH9loK8pkvIMFC1X0-43">
          <mxGeometry width="50" height="50" relative="1" as="geometry">
            <mxPoint x="400" y="620" as="sourcePoint" />
            <mxPoint x="450" y="570" as="targetPoint" />
          </mxGeometry>
        </mxCell>
        <mxCell id="UthKH9loK8pkvIMFC1X0-45" value="write" style="ellipse;whiteSpace=wrap;html=1;" vertex="1" parent="1">
          <mxGeometry x="200" y="880" width="100" height="50" as="geometry" />
        </mxCell>
        <mxCell id="UthKH9loK8pkvIMFC1X0-46" value="" style="endArrow=classic;html=1;rounded=0;entryX=0.5;entryY=0;entryDx=0;entryDy=0;exitX=0.5;exitY=1;exitDx=0;exitDy=0;" edge="1" parent="1" source="UthKH9loK8pkvIMFC1X0-43" target="UthKH9loK8pkvIMFC1X0-45">
          <mxGeometry width="50" height="50" relative="1" as="geometry">
            <mxPoint x="400" y="720" as="sourcePoint" />
            <mxPoint x="450" y="670" as="targetPoint" />
          </mxGeometry>
        </mxCell>
        <mxCell id="UthKH9loK8pkvIMFC1X0-47" value="" style="endArrow=classic;html=1;rounded=0;entryX=0;entryY=0.5;entryDx=0;entryDy=0;exitX=1;exitY=0.5;exitDx=0;exitDy=0;" edge="1" parent="1" source="UthKH9loK8pkvIMFC1X0-45" target="UthKH9loK8pkvIMFC1X0-26">
          <mxGeometry width="50" height="50" relative="1" as="geometry">
            <mxPoint x="400" y="720" as="sourcePoint" />
            <mxPoint x="450" y="670" as="targetPoint" />
          </mxGeometry>
        </mxCell>
        <mxCell id="UthKH9loK8pkvIMFC1X0-48" value="close" style="ellipse;whiteSpace=wrap;html=1;" vertex="1" parent="1">
          <mxGeometry x="80" y="880" width="100" height="50" as="geometry" />
        </mxCell>
        <mxCell id="UthKH9loK8pkvIMFC1X0-49" value="" style="endArrow=classic;html=1;rounded=0;entryX=1;entryY=0.5;entryDx=0;entryDy=0;exitX=0;exitY=0.5;exitDx=0;exitDy=0;" edge="1" parent="1" source="UthKH9loK8pkvIMFC1X0-45" target="UthKH9loK8pkvIMFC1X0-48">
          <mxGeometry width="50" height="50" relative="1" as="geometry">
            <mxPoint x="400" y="820" as="sourcePoint" />
            <mxPoint x="450" y="770" as="targetPoint" />
          </mxGeometry>
        </mxCell>
        <mxCell id="UthKH9loK8pkvIMFC1X0-50" value="try_again()" style="ellipse;whiteSpace=wrap;html=1;" vertex="1" parent="1">
          <mxGeometry x="200" y="960" width="100" height="50" as="geometry" />
        </mxCell>
        <mxCell id="UthKH9loK8pkvIMFC1X0-51" value="" style="endArrow=classic;html=1;rounded=0;entryX=0.5;entryY=0;entryDx=0;entryDy=0;exitX=0.5;exitY=1;exitDx=0;exitDy=0;" edge="1" parent="1" source="UthKH9loK8pkvIMFC1X0-45" target="UthKH9loK8pkvIMFC1X0-50">
          <mxGeometry width="50" height="50" relative="1" as="geometry">
            <mxPoint x="400" y="820" as="sourcePoint" />
            <mxPoint x="450" y="770" as="targetPoint" />
          </mxGeometry>
        </mxCell>
        <mxCell id="UthKH9loK8pkvIMFC1X0-52" value="read" style="ellipse;whiteSpace=wrap;html=1;" vertex="1" parent="1">
          <mxGeometry x="350" y="960" width="75" height="50" as="geometry" />
        </mxCell>
        <mxCell id="UthKH9loK8pkvIMFC1X0-53" value="write" style="ellipse;whiteSpace=wrap;html=1;" vertex="1" parent="1">
          <mxGeometry x="350" y="1040" width="75" height="50" as="geometry" />
        </mxCell>
        <mxCell id="UthKH9loK8pkvIMFC1X0-54" value="" style="endArrow=classic;html=1;rounded=0;entryX=0.5;entryY=0;entryDx=0;entryDy=0;exitX=0.5;exitY=1;exitDx=0;exitDy=0;" edge="1" parent="1" source="UthKH9loK8pkvIMFC1X0-25" target="UthKH9loK8pkvIMFC1X0-52">
          <mxGeometry width="50" height="50" relative="1" as="geometry">
            <mxPoint x="380" y="790" as="sourcePoint" />
            <mxPoint x="450" y="790" as="targetPoint" />
            <Array as="points">
              <mxPoint x="520" y="840" />
              <mxPoint x="388" y="840" />
            </Array>
          </mxGeometry>
        </mxCell>
        <mxCell id="UthKH9loK8pkvIMFC1X0-55" value="" style="endArrow=classic;html=1;rounded=0;exitX=1;exitY=0.5;exitDx=0;exitDy=0;entryX=0;entryY=0.5;entryDx=0;entryDy=0;" edge="1" parent="1" source="UthKH9loK8pkvIMFC1X0-50" target="UthKH9loK8pkvIMFC1X0-52">
          <mxGeometry width="50" height="50" relative="1" as="geometry">
            <mxPoint x="400" y="840" as="sourcePoint" />
            <mxPoint x="450" y="790" as="targetPoint" />
          </mxGeometry>
        </mxCell>
        <mxCell id="UthKH9loK8pkvIMFC1X0-56" value="" style="endArrow=classic;html=1;rounded=0;entryX=0.5;entryY=0;entryDx=0;entryDy=0;" edge="1" parent="1" target="UthKH9loK8pkvIMFC1X0-53">
          <mxGeometry width="50" height="50" relative="1" as="geometry">
            <mxPoint x="388" y="1010" as="sourcePoint" />
            <mxPoint x="450" y="790" as="targetPoint" />
          </mxGeometry>
        </mxCell>
        <mxCell id="UthKH9loK8pkvIMFC1X0-58" value="" style="endArrow=classic;html=1;rounded=0;exitX=0.947;exitY=0.18;exitDx=0;exitDy=0;exitPerimeter=0;entryX=0.43;entryY=1;entryDx=0;entryDy=0;entryPerimeter=0;" edge="1" parent="1" source="UthKH9loK8pkvIMFC1X0-53" target="UthKH9loK8pkvIMFC1X0-26">
          <mxGeometry width="50" height="50" relative="1" as="geometry">
            <mxPoint x="400" y="840" as="sourcePoint" />
            <mxPoint x="450" y="790" as="targetPoint" />
            <Array as="points">
              <mxPoint x="513" y="1050" />
            </Array>
          </mxGeometry>
        </mxCell>
        <mxCell id="UthKH9loK8pkvIMFC1X0-59" value="close" style="ellipse;whiteSpace=wrap;html=1;" vertex="1" parent="1">
          <mxGeometry x="580" y="1040" width="100" height="50" as="geometry" />
        </mxCell>
        <mxCell id="UthKH9loK8pkvIMFC1X0-60" value="" style="endArrow=classic;html=1;rounded=0;entryX=0;entryY=0.5;entryDx=0;entryDy=0;exitX=1;exitY=0.5;exitDx=0;exitDy=0;" edge="1" parent="1" source="UthKH9loK8pkvIMFC1X0-53" target="UthKH9loK8pkvIMFC1X0-59">
          <mxGeometry width="50" height="50" relative="1" as="geometry">
            <mxPoint x="400" y="840" as="sourcePoint" />
            <mxPoint x="450" y="790" as="targetPoint" />
          </mxGeometry>
        </mxCell>
        <mxCell id="UthKH9loK8pkvIMFC1X0-61" value="" style="endArrow=classic;html=1;rounded=0;exitX=0;exitY=0.5;exitDx=0;exitDy=0;entryX=0;entryY=0.5;entryDx=0;entryDy=0;" edge="1" parent="1" source="UthKH9loK8pkvIMFC1X0-53" target="UthKH9loK8pkvIMFC1X0-34">
          <mxGeometry width="50" height="50" relative="1" as="geometry">
            <mxPoint x="260" y="1080" as="sourcePoint" />
            <mxPoint x="310" y="1030" as="targetPoint" />
            <Array as="points">
              <mxPoint x="50" y="1065" />
              <mxPoint x="50" y="535" />
            </Array>
          </mxGeometry>
        </mxCell>
      </root>
    </mxGraphModel>
  </diagram>
</mxfile>
